<svg xmlns="http://www.w3.org/2000/svg" viewBox="0 0 900 820" role="img" aria-label="Babe Cave">
<g transform="translate(450.0,150) scale(0.9750)" fill="none" stroke="#BE3A6B" stroke-width="5.128" stroke-linejoin="round" >
  <g transform="rotate(0.0)"><path d="M0,0 C-15,-16 -19,-48 -10,-72 C-8,-79 -4,-77 0,-66 C4,-77 8,-79 10,-72 C19,-48 15,-16 0,0 Z"/></g>
  <g transform="rotate(72.0)"><path d="M0,0 C-15,-16 -19,-48 -10,-72 C-8,-79 -4,-77 0,-66 C4,-77 8,-79 10,-72 C19,-48 15,-16 0,0 Z"/></g>
  <g transform="rotate(144.0)"><path d="M0,0 C-15,-16 -19,-48 -10,-72 C-8,-79 -4,-77 0,-66 C4,-77 8,-79 10,-72 C19,-48 15,-16 0,0 Z"/></g>
  <g transform="rotate(216.0)"><path d="M0,0 C-15,-16 -19,-48 -10,-72 C-8,-79 -4,-77 0,-66 C4,-77 8,-79 10,-72 C19,-48 15,-16 0,0 Z"/></g>
  <g transform="rotate(288.0)"><path d="M0,0 C-15,-16 -19,-48 -10,-72 C-8,-79 -4,-77 0,-66 C4,-77 8,-79 10,-72 C19,-48 15,-16 0,0 Z"/></g>
</g>
<circle cx="450.0" cy="150" r="3.90" fill="#BE3A6B"/>
<circle cx="450.00" cy="137.52" r="2.73" fill="#BE3A6B"/>
<circle cx="460.81" cy="143.76" r="2.73" fill="#BE3A6B"/>
<circle cx="460.81" cy="156.24" r="2.73" fill="#BE3A6B"/>
<circle cx="450.00" cy="162.48" r="2.73" fill="#BE3A6B"/>
<circle cx="439.19" cy="156.24" r="2.73" fill="#BE3A6B"/>
<circle cx="439.19" cy="143.76" r="2.73" fill="#BE3A6B"/>
<path d="M280.0,126 C284.8,151.2 284.8,151.2 310.0,156 C284.8,160.8 284.8,160.8 280.0,186 C275.2,160.8 275.2,160.8 250.0,156 C275.2,151.2 275.2,151.2 280.0,126 Z" fill="#BE3A6B"/>
<path d="M620.0,126 C624.8,151.2 624.8,151.2 650.0,156 C624.8,160.8 624.8,160.8 620.0,186 C615.2,160.8 615.2,160.8 590.0,156 C615.2,151.2 615.2,151.2 620.0,126 Z" fill="#BE3A6B"/>
<g fill="#BE3A6B">
  <path transform="translate(199.700,430.000) scale(0.20000,-0.20000)" d="M79 750H111Q190 750 227.0 713.5Q264 677 264 606Q264 565 240.0 527.5Q216 490 182 477Q268 463 315.0 405.0Q362 347 362 253Q362 178 329.0 120.5Q296 63 238.5 31.5Q181 0 111 0H79ZM119 486Q167 486 200.0 521.0Q233 556 233 607Q233 664 205.5 693.0Q178 722 119 722H111V486ZM119 28Q178 28 226.0 56.5Q274 85 302.0 136.0Q330 187 330 251Q330 354 275.5 406.5Q221 459 119 459H111V28Z"/>
  <path transform="translate(314.300,430.000) scale(0.20000,-0.20000)" d="M781 0H746L604 286H206L67 0H32L406 768ZM592 315 404 696 220 315Z"/>
  <path transform="translate(510.900,430.000) scale(0.20000,-0.20000)" d="M79 750H111Q190 750 227.0 713.5Q264 677 264 606Q264 565 240.0 527.5Q216 490 182 477Q268 463 315.0 405.0Q362 347 362 253Q362 178 329.0 120.5Q296 63 238.5 31.5Q181 0 111 0H79ZM119 486Q167 486 200.0 521.0Q233 556 233 607Q233 664 205.5 693.0Q178 722 119 722H111V486ZM119 28Q178 28 226.0 56.5Q274 85 302.0 136.0Q330 187 330 251Q330 354 275.5 406.5Q221 459 119 459H111V28Z"/>
  <path transform="translate(625.500,430.000) scale(0.20000,-0.20000)" d="M79 750H348V721H112V313H309V284H112V29H348V0H79Z"/>
</g>
<g fill="#BE3A6B">
  <path transform="translate(141.400,650.000) scale(0.20000,-0.20000)" d="M47 377Q47 486 100.5 576.0Q154 666 243.5 718.0Q333 770 434 770Q504 770 545.0 757.5Q586 745 640 714V677Q589 712 545.5 726.5Q502 741 437 741Q338 741 256.5 690.5Q175 640 127.5 555.5Q80 471 80 374Q80 276 128.0 192.0Q176 108 255.5 58.5Q335 9 427 9Q493 9 542.0 24.5Q591 40 640 73V36Q592 7 541.5 -6.5Q491 -20 431 -20Q326 -20 238.0 31.5Q150 83 98.5 173.5Q47 264 47 377Z"/>
  <path transform="translate(316.000,650.000) scale(0.20000,-0.20000)" d="M781 0H746L604 286H206L67 0H32L406 768ZM592 315 404 696 220 315Z"/>
  <path transform="translate(512.600,650.000) scale(0.20000,-0.20000)" d="M686 750 343 -17 0 750H36L346 59L652 750Z"/>
  <path transform="translate(683.800,650.000) scale(0.20000,-0.20000)" d="M79 750H348V721H112V313H309V284H112V29H348V0H79Z"/>
</g>
<line x1="141.4" y1="740" x2="404.0" y2="740" stroke="#BE3A6B" stroke-width="3.5"/>
<line x1="496.0" y1="740" x2="758.6" y2="740" stroke="#BE3A6B" stroke-width="3.5"/>
<g transform="translate(450.0,740) scale(0.3250)" fill="#BE3A6B" >
  <g transform="rotate(0.0)"><path d="M0,0 C-15,-16 -19,-48 -10,-72 C-8,-79 -4,-77 0,-66 C4,-77 8,-79 10,-72 C19,-48 15,-16 0,0 Z"/></g>
  <g transform="rotate(72.0)"><path d="M0,0 C-15,-16 -19,-48 -10,-72 C-8,-79 -4,-77 0,-66 C4,-77 8,-79 10,-72 C19,-48 15,-16 0,0 Z"/></g>
  <g transform="rotate(144.0)"><path d="M0,0 C-15,-16 -19,-48 -10,-72 C-8,-79 -4,-77 0,-66 C4,-77 8,-79 10,-72 C19,-48 15,-16 0,0 Z"/></g>
  <g transform="rotate(216.0)"><path d="M0,0 C-15,-16 -19,-48 -10,-72 C-8,-79 -4,-77 0,-66 C4,-77 8,-79 10,-72 C19,-48 15,-16 0,0 Z"/></g>
  <g transform="rotate(288.0)"><path d="M0,0 C-15,-16 -19,-48 -10,-72 C-8,-79 -4,-77 0,-66 C4,-77 8,-79 10,-72 C19,-48 15,-16 0,0 Z"/></g>
</g>
</svg>